# xmcd
# 
# Track frame offsets:
#     150
#     15017
#     29245
#     42332
#     56337
#     69375
#     83857
#     88532
#     107427
#     126167
# 
# Disc length: 1919
# 
# Revision: 28
# Processed by: cddbd v1.5.2PL0 Copyright (c) Steve Scherf et al.
# Submitted via: fre:ac v1.0.17
# 
DISCID=74077d0a
DTITLE=Van Halen - Van Halen II
DYEAR=1979
DGENRE=Hard Rock
TTITLE0=You're No Good
TTITLE1=Dance The Night Away
TTITLE2=Somebody Get Me A Doctor
TTITLE3=Bottoms Up!
TTITLE4=Outta Love Again
TTITLE5=Light Up The Sky
TTITLE6=Spanish Fly
TTITLE7=D.O.A.
TTITLE8=Women In Love
TTITLE9=Beautiful Girls
EXTD=Warner Remasters Series YEAR: 1979
EXTT0=
EXTT1=
EXTT2=
EXTT3=
EXTT4=
EXTT5=
EXTT6=
EXTT7=
EXTT8=
EXTT9=
PLAYORDER=
